HIERARCHY
ROOT ui
{
	 OFFSET 0 0 0
	 CHANNELS 3 XPosition YPosition Z Position
	 EndSite
	 {
	 OFFSET 0 -1 0
	 }
}
ROOT li
{
	 OFFSET 0 0 0
	 CHANNELS 3 XPosition YPosition Z Position
	 EndSite
	 {
	 OFFSET 0 -1 0
	 }
}
ROOT ul
{
	 OFFSET 0 0 0
	 CHANNELS 3 XPosition YPosition Z Position
	 EndSite
	 {
	 OFFSET 0 -1 0
	 }
}
ROOT ll
{
	 OFFSET 0 0 0
	 CHANNELS 3 XPosition YPosition Z Position
	 EndSite
	 {
	 OFFSET 0 -1 0
	 }
}
ROOT tt
{
	 OFFSET 0 0 0
	 CHANNELS 3 XPosition YPosition Z Position
	 EndSite
	 {
	 OFFSET 0 -1 0
	 }
}
ROOT tb
{
	 OFFSET 0 0 0
	 CHANNELS 3 XPosition YPosition Z Position
	 EndSite
	 {
	 OFFSET 0 -1 0
	 }
}
ROOT td
{
	 OFFSET 0 0 0
	 CHANNELS 3 XPosition YPosition Z Position
	 EndSite
	 {
	 OFFSET 0 -1 0
	 }
}
ROOT v
{
	 OFFSET 0 0 0
	 CHANNELS 3 XPosition YPosition Z Position
	 EndSite
	 {
	 OFFSET 0 -1 0
	 }
}
ROOT bn
{
	 OFFSET 0 0 0
	 CHANNELS 3 XPosition YPosition Z Position
	 EndSite
	 {
	 OFFSET 0 -1 0
	 }
}
MOTION
Frames: 13
Frame Time: 0.002
0.015175278663635255	-0.0011756739616394043	0		0.58738671875	-2.707779541015625	0		-0.9372167358398438	0.09973766326904297	0		-0.5162003173828125	-2.798931396484375	0		2.71866162109375	-1.058976318359375	0		4.07074609375	-0.7273621215820313	0		5.07868505859375	-0.4063678588867187	0		5.96147509765625	0.3509230651855469	0		-0.15013810729980467	5.90996435546875	0		
-0.039207252502441406	-6.900500059127808E-4	0		0.5590112915039063	-2.704457763671875	0		-0.937599853515625	0.09989176940917968	0		-0.523514404296875	-2.78573583984375	0		2.716590576171875	-1.0078256225585938	0		4.068396728515625	-0.7212161254882813	0		5.08928173828125	-0.4093056640625	0		5.96109326171875	0.35104913330078125	0		-0.15049765014648436	5.910115234375	0		
0.014469440460205079	-8.839979767799377E-4	0		0.586654296875	-2.707493408203125	0		-0.9379215698242187	0.10003868103027344	0		-0.5657461547851562	-2.76833056640625	0		2.7215361328125	-0.9637316284179688	0		4.071126220703125	-0.7121167602539062	0		5.1099326171875	-0.41332269287109374	0		5.9558291015625	0.36018731689453126	0		-0.1858225860595703	5.90447509765625	0		
-0.03978952026367188	-4.1446799039840696E-4	0		0.5624183349609375	-2.70021484375	0		-0.933156005859375	0.10414794158935547	0		-0.5289215087890625	-2.75142333984375	0		2.757560791015625	-0.9168431396484376	0		4.089835693359375	-0.7161314697265625	0		5.0955712890625	-0.42913796997070314	0		5.96456494140625	0.35922088623046877	0		-0.1840514678955078	5.90259765625	0		
0.022059114456176757	0.006325695991516113	0		0.5972374877929687	-2.694311767578125	0		-0.9242991943359375	0.11222631072998047	0		-0.5890137329101562	-2.730918701171875	0		2.7677138671875	-0.8598045043945313	0		4.139734375	-0.7003530883789062	0		5.12140576171875	-0.42421688842773436	0		5.96842431640625	0.36726959228515627	0		-0.133094482421875	5.91840771484375	0		
0.013893856048583984	-5.04639983177185E-4	0		0.5601583862304688	-2.682967041015625	0		-0.9334696044921875	0.10441161346435547	0		-0.5201077270507812	-2.72222412109375	0		2.78779541015625	-0.825837646484375	0		4.1196123046875	-0.6991494750976562	0		5.13228076171875	-0.42421453857421876	0		5.96425634765625	0.3593553771972656	0		-0.1512071838378906	5.91064111328125	0		
0.013848993301391601	-3.91526997089386E-4	0		0.54912890625	-2.675791259765625	0		-0.9394819946289062	0.109572265625	0		-0.6069923706054687	-2.691561767578125	0		2.798104248046875	-0.7678178100585937	0		4.1325908203125	-0.69416162109375	0		5.13416455078125	-0.4351662292480469	0		5.96421533203125	0.35940496826171875	0		-0.1492014923095703	5.90874365234375	0		
0.013882805824279785	-2.852329909801483E-4	0		0.5621074829101562	-2.679772216796875	0		-0.943471923828125	0.10571436309814453	0		-0.5379398803710937	-2.683880859375	0		2.85837890625	-0.7281193237304687	0		4.15259814453125	-0.6972266235351563	0		5.15806298828125	-0.456264892578125	0		5.960203125	0.3514699401855469	0		-0.15108901977539063	5.9108642578125	0		
0.01096844482421875	-0.004167066097259521	0		0.5562628173828125	-2.667641845703125	0		-0.9333665161132813	0.10476187133789062	0		-0.6206449584960938	-2.649255126953125	0		2.8717822265625	-0.68013525390625	0		4.18476904296875	-0.6863759155273438	0		5.14925830078125	-0.44216619873046875	0		5.9643681640625	0.35947564697265627	0		-0.1839600372314453	5.9031728515625	0		
0.01819466209411621	0.0028811030387878417	0		0.5624583129882812	-2.66059375	0		-0.9301011962890625	0.11784595489501953	0		-0.6063991088867188	-2.634243896484375	0		2.88931494140625	-0.6231839599609375	0		4.1949619140625	-0.6833946533203125	0		5.163474609375	-0.43621896362304685	0		5.9645546875	0.35949932861328127	0		-0.1336036834716797	5.91995263671875	0		
0.014421319007873535	-8.077999576926231E-6	0		0.552724365234375	-2.652451416015625	0		-0.9389046630859375	0.10999907684326173	0		-0.6190319213867187	-2.61006982421875	0		2.951747314453125	-0.59252197265625	0		4.2272685546875	-0.6725580444335938	0		5.1686728515625	-0.4432205810546875	0		5.96480419921875	0.3595177917480469	0		-0.1483603973388672	5.90913427734375	0		
0.01471741008758545	7.114499807357788E-5	0		0.5450614013671875	-2.641327880859375	0		-0.94358203125	0.11412003326416016	0		-0.6295996704101563	-2.583914794921875	0		2.961384033203125	-0.5375322265625	0		4.22356396484375	-0.6714989624023437	0		5.16699072265625	-0.4391821594238281	0		5.97410400390625	0.35947613525390626	0		-0.14800067138671874	5.90921533203125	0		
-0.04296896743774414	-0.002489198923110962	0		0.54737890625	-2.639272705078125	0		-0.9432494506835938	0.11420271301269531	0		-0.6192249145507812	-2.572898681640625	0		2.99499365234375	-0.4926982727050781	0		4.21195166015625	-0.6613925170898437	0		5.177306640625	-0.4412220458984375	0		5.96543896484375	0.35954617309570314	0		-0.14760987854003907	5.9092900390625	0		
